<?xml version="1.0" encoding="UTF-8"?>
<svg width="16px" height="16px" viewBox="0 0 16 16" version="1.1" xmlns="http://www.w3.org/2000/svg" xmlns:xlink="http://www.w3.org/1999/xlink">
    <title>新建文件夹</title>
    <g id="页面-1" stroke="none" stroke-width="1" fill="none" fill-rule="evenodd">
        <g id="首页方案一" transform="translate(-912, -112)">
            <g id="新建文件夹" transform="translate(912, 112)">
                <rect id="矩形" fill="#D8D8D8" opacity="0" x="0" y="0" width="16" height="16"></rect>
                <path d="M6.37627177,0.668750459 C6.99817325,0.668750459 7.58920687,0.939719808 7.99480016,1.41115968 L12.7514824,1.41115968 C14.5081778,1.41115968 15.946516,2.80768693 15.9983021,4.56353343 L15.9997878,4.65925285 L16,4.97103074 C15.9985143,4.99607485 16,5.02133119 16,5.04722425 L16,12.0839813 C16,13.8780306 14.545744,15.3322867 12.7516946,15.3322867 L3.24830541,15.3322867 C1.45425604,15.3322867 0,13.8780306 0,12.0839813 L0,3.91705592 C0,2.12300655 1.45446828,0.668750459 3.24830541,0.668750459 Z M6.37627177,1.96786043 L3.24830541,1.96786043 C2.17183334,1.96786043 1.29932216,2.84037161 1.29932216,3.91684368 L1.29932216,12.083769 C1.29932216,13.1604533 2.17183334,14.0327523 3.24830541,14.0327523 L12.7514824,14.0327523 C13.8281667,14.0327523 14.7004656,13.1602411 14.7004656,12.083769 L14.7004656,5.69624862 L9.79288206,5.69624862 C8.9210076,5.69624862 8.13678751,5.1658654 7.81206309,4.3566012 L7.78022736,4.27234264 L7.16409991,2.52498567 C7.04609548,2.191135 6.7304973,1.96786043 6.37627177,1.96786043 Z M8.00010612,6.96012701 C8.26031013,6.96033924 8.47700532,7.15984314 8.49865361,7.4191982 L8.50035152,7.46037241 L8.5,9.24675046 L10.2876093,9.24763016 C10.5639434,9.24784239 10.7878547,9.47196592 10.7878547,9.74830003 C10.7876424,10.008504 10.5881385,10.2251992 10.3287835,10.2468475 L10.2876093,10.2485454 L8.5,10.2477505 L8.50035152,12.0358032 C8.50013928,12.3121373 8.27601576,12.5360486 7.99968164,12.5360486 C7.73947763,12.5358363 7.52278244,12.3363325 7.50113415,12.0769774 L7.49943624,12.0358032 L7.499,10.2477505 L5.71217849,10.2485454 C5.43584438,10.2483332 5.21193309,10.0242097 5.21193309,9.74787556 C5.21214533,9.48767154 5.41164922,9.27097636 5.67100428,9.24932806 L5.71217849,9.24763016 L7.499,9.24675046 L7.49943624,7.46037241 C7.49964848,7.18403829 7.723772,6.96012701 8.00010612,6.96012701 Z M12.7514824,2.71005737 L8.60668285,2.71005737 L9.0054784,3.83980122 C9.11558951,4.1525342 9.40027991,4.3705081 9.73090851,4.39522855 L9.79288206,4.39756317 L14.6830621,4.39713869 C14.5559314,3.46095606 13.7757438,2.75059486 12.8317084,2.71175527 L12.7514824,2.71005737 Z" id="形状结合" fill="#666666" fill-rule="nonzero"></path>
            </g>
        </g>
    </g>
</svg>